<?xml version="1.0" encoding="utf-8"?>
<!-- Generator: Adobe Illustrator 23.0.1, SVG Export Plug-In . SVG Version: 6.00 Build 0)  -->
<svg version="1.1" id="Layer_1" xmlns="http://www.w3.org/2000/svg" xmlns:xlink="http://www.w3.org/1999/xlink" x="0px" y="0px"
	 viewBox="0 0 768 512" style="enable-background:new 0 0 768 512;" xml:space="preserve">
<style type="text/css">
	.st0{fill:#E6E6E6;stroke:#B4B6FF;stroke-width:23;stroke-linecap:round;stroke-miterlimit:10;}
	.st1{fill:none;stroke:#B4B6FF;stroke-width:23;stroke-linecap:round;stroke-miterlimit:10;}
	.st2{fill:none;stroke:#9192CC;stroke-width:7;stroke-linecap:round;stroke-miterlimit:10;}
	.st3{fill:#F2F2F2;stroke:#F5F5F5;stroke-width:113;stroke-linecap:round;stroke-miterlimit:10;}
	.st4{fill:none;stroke:#E0E0E0;stroke-width:21;stroke-linecap:round;stroke-miterlimit:10;}
	.st5{fill:#DED21D;stroke:#DED21D;stroke-width:5;stroke-miterlimit:10;}
	.st6{fill:#F5F5F5;}
	.st7{fill:#E0E0E0;}
	.st8{fill:none;stroke:#BDBDBD;stroke-width:11;stroke-linecap:round;stroke-miterlimit:10;}
	.st9{fill:#E6E6E6;stroke:#B4B6FF;stroke-width:11;stroke-linecap:round;stroke-miterlimit:10;}
	.st10{fill:none;stroke:#E0E0E0;stroke-width:17;stroke-linecap:round;stroke-miterlimit:10;}
	.st11{fill:#5C5A66;}
	.st12{fill:#5C5A66;stroke:#FFFFFF;stroke-width:2;stroke-linecap:round;stroke-miterlimit:10;}
	.st13{fill:none;stroke:#9192CC;stroke-width:6;stroke-linecap:round;stroke-miterlimit:10;}
	.st14{fill:none;stroke:#494852;stroke-width:12;stroke-linecap:round;stroke-miterlimit:10;}
	.st15{fill:none;stroke:#9192CC;stroke-width:3;stroke-linecap:round;stroke-miterlimit:10;}
	.st16{fill:none;stroke:#C4BA1A;stroke-width:5;stroke-linecap:round;stroke-linejoin:round;stroke-miterlimit:10;}
</style>
<line class="st0" x1="268.52" y1="429.89" x2="241.46" y2="475.11"/>
<line class="st1" x1="524.27" y1="349.51" x2="215.73" y2="182.49"/>
<line class="st2" x1="251.8" y1="464.37" x2="266.42" y2="440.6"/>
<line class="st3" x1="434.22" y1="163.51" x2="289.78" y2="397.49"/>
<line class="st4" x1="320" y1="418" x2="426.32" y2="242"/>
<g>
	<path class="st5" d="M321.49,324.69c0.93-0.21,1.85-0.03,2.76,0.55l14.14,8.95c0.95,0.6,1.48,1.38,1.59,2.33
		c0.81,6.31-0.53,12.23-4.03,17.76c-2.67,4.22-6.16,7.42-10.46,9.59c-4.3,2.17-8.9,3.11-13.81,2.83c-4.9-0.29-9.54-1.81-13.92-4.58
		c-4.34-2.75-7.68-6.27-10.02-10.56c-2.34-4.3-3.46-8.86-3.36-13.69c0.1-4.83,1.48-9.35,4.16-13.57c1.9-3,3.93-5.34,6.11-7.03
		c2.18-1.69,4.88-3.09,8.12-4.19c0.65-0.25,1.22-0.33,1.69-0.25c0.48,0.08,0.97,0.28,1.48,0.61c0.79,0.5,1.26,1.2,1.41,2.09
		c0.15,0.9-0.02,1.74-0.52,2.53c-0.45,0.71-1.13,1.22-2.04,1.53c-2.4,0.74-4.4,1.69-5.98,2.84c-1.58,1.15-3.15,2.95-4.7,5.4
		c-1.95,3.08-2.93,6.42-2.95,10.03c-0.02,3.61,0.88,7.05,2.71,10.33c1.82,3.28,4.37,5.95,7.64,8.03c3.31,2.1,6.83,3.26,10.56,3.49
		c3.72,0.23,7.21-0.44,10.46-2c3.25-1.56,5.85-3.88,7.8-6.96c2.1-3.31,3.12-7.11,3.07-11.4l-10.53-6.67l-5.17,8.17
		c-0.57,0.91-1.3,1.49-2.17,1.73c-0.88,0.25-1.71,0.12-2.5-0.38c-0.79-0.5-1.26-1.2-1.41-2.09c-0.15-0.9,0.06-1.8,0.63-2.71l7-11.07
		C319.81,325.44,320.56,324.9,321.49,324.69z"/>
	<path class="st5" d="M332,262.3c4.27-2.3,8.83-3.31,13.68-3.03c4.85,0.28,9.56,1.87,14.14,4.76c4.58,2.9,8.04,6.48,10.39,10.76
		c2.35,4.28,3.41,8.83,3.17,13.65c-0.23,4.82-1.8,9.52-4.7,14.1c-2.9,4.58-6.48,8.01-10.75,10.31c-4.27,2.3-8.84,3.29-13.7,2.98
		c-4.86-0.31-9.57-1.91-14.15-4.81c-4.58-2.9-8.04-6.47-10.38-10.71c-2.34-4.24-3.39-8.79-3.14-13.63
		c0.25-4.84,1.82-9.55,4.71-14.13C324.16,268.02,327.73,264.6,332,262.3z M323.47,286.66c-0.11,3.66,0.75,7.12,2.56,10.36
		c1.81,3.25,4.42,5.94,7.81,8.09c3.39,2.15,6.95,3.35,10.66,3.59c3.71,0.25,7.21-0.46,10.51-2.14c3.3-1.67,6-4.18,8.13-7.54
		c2.12-3.35,3.23-6.88,3.33-10.57c0.1-3.69-0.76-7.16-2.57-10.41c-1.81-3.25-4.42-5.94-7.81-8.09c-3.39-2.15-6.94-3.34-10.66-3.59
		c-3.71-0.25-7.2,0.46-10.46,2.13c-3.26,1.67-5.97,4.19-8.11,7.59C324.7,279.47,323.58,283,323.47,286.66z"/>
	<path class="st5" d="M405.82,230.9c0.97-0.22,1.88-0.05,2.75,0.5c0.87,0.55,1.41,1.31,1.63,2.27c0.22,0.97,0.05,1.88-0.5,2.75
		l-15.5,24.5c-0.55,0.87-1.3,1.4-2.25,1.6c-0.95,0.2-1.86,0.02-2.73-0.53l-40.07-25.35c-0.87-0.55-1.41-1.31-1.63-2.27
		c-0.22-0.97-0.06-1.86,0.46-2.69c0.55-0.87,1.31-1.41,2.27-1.63c0.97-0.22,1.88-0.05,2.75,0.5l36.99,23.41l13.56-21.42
		C404.1,231.66,404.85,231.12,405.82,230.9z"/>
	<path class="st5" d="M392.54,167.8c4.17-2.22,8.61-3.2,13.33-2.92c4.71,0.28,9.3,1.82,13.76,4.65c4.46,2.82,7.83,6.31,10.12,10.46
		c2.29,4.16,3.32,8.59,3.1,13.31c-0.22,4.72-1.75,9.31-4.57,13.77l-6.78,10.71c-0.55,0.87-1.31,1.41-2.27,1.63
		c-0.97,0.22-1.88,0.05-2.75-0.5l-40.07-25.35c-0.91-0.57-1.46-1.34-1.66-2.29c-0.2-0.95-0.02-1.86,0.53-2.73l6.78-10.71
		C384.88,173.36,388.37,170.02,392.54,167.8z M426.14,193.41c0.14-3.53-0.69-6.87-2.48-10.02c-1.79-3.15-4.38-5.8-7.78-7.95
		c-3.39-2.15-6.88-3.35-10.48-3.61c-3.6-0.26-6.96,0.43-10.09,2.07c-3.13,1.64-5.74,4.09-7.81,7.37l-4.83,7.63L418,211.26l4.83-7.63
		C424.9,200.35,426.01,196.94,426.14,193.41z"/>
</g>
<line class="st0" x1="507.5" y1="105.5" x2="454.5" y2="125.5"/>
<path class="st6" d="M588.44,167.63c0,0-79.73,12.34-92.91-57.89c-12.33-65.68,57.89-92.91,57.89-92.91L588.44,167.63z"/>
<ellipse transform="matrix(0.9771 -0.2128 0.2128 0.9771 -6.5649 123.5416)" class="st7" cx="570.58" cy="92.27" rx="15.15" ry="77.5"/>
<path class="st8" d="M572.5,78.5c0,0,12,29,12,66"/>
<line class="st9" x1="570.5" y1="92.5" x2="598.5" y2="85.5"/>
<path class="st6" d="M213.59,251.39l-199.19-115c-7.65-4.42-10.27-14.2-5.86-21.86l52-90.07c4.42-7.65,14.2-10.27,21.86-5.86
	l199.19,115c7.65,4.42,10.27,14.2,5.86,21.86l-52,90.07C231.03,253.19,221.25,255.81,213.59,251.39z"/>
<path class="st6" d="M663.59,506.39l-199.19-115c-7.65-4.42-10.27-14.2-5.86-21.86l52-90.07c4.42-7.65,14.2-10.27,21.86-5.86
	l199.19,115c7.65,4.42,10.27,14.2,5.86,21.86l-52,90.07C681.03,508.19,671.25,510.81,663.59,506.39z"/>
<path class="st10" d="M557.5,152.5c0,0-16-2-28-10"/>
<path class="st11" d="M214.61,242L23.85,131.87c-5.74-3.31-7.71-10.65-4.39-16.39L68,31.39c3.31-5.74,10.65-7.71,16.39-4.39
	l190.76,110.13c5.74,3.31,7.71,10.65,4.39,16.39L231,237.61C227.69,243.35,220.35,245.31,214.61,242z"/>
<path class="st11" d="M663.49,500.41l-195.03-112.6c-5.74-3.31-7.71-10.65-4.39-16.39l51.06-88.44c3.31-5.74,10.65-7.71,16.39-4.39
	l195.03,112.6c5.74,3.31,7.71,10.65,4.39,16.39l-51.06,88.44C676.57,501.76,669.23,503.73,663.49,500.41z"/>
<line class="st12" x1="42.57" y1="75.44" x2="255" y2="196.04"/>
<line class="st12" x1="138.34" y1="58.15" x2="78" y2="163"/>
<line class="st12" x1="155.27" y1="207.74" x2="214.2" y2="101.94"/>
<line class="st12" x1="490" y1="327" x2="703" y2="455"/>
<line class="st12" x1="590" y1="313" x2="525" y2="420"/>
<line class="st12" x1="603" y1="465" x2="665" y2="356"/>
<line class="st13" x1="263.5" y1="213.5" x2="311.5" y2="239.5"/>
<line class="st13" x1="425.5" y1="302.5" x2="473.5" y2="328.5"/>
<line class="st14" x1="70.5" y1="147.5" x2="83.5" y2="125.5"/>
<line class="st14" x1="101.5" y1="97.5" x2="114.5" y2="75.5"/>
<line class="st14" x1="149.5" y1="192.5" x2="162.5" y2="170.5"/>
<line class="st14" x1="180.5" y1="142.5" x2="193.5" y2="120.5"/>
<line class="st14" x1="218.5" y1="230.5" x2="231.5" y2="208.5"/>
<line class="st14" x1="249.5" y1="180.5" x2="262.5" y2="158.5"/>
<line class="st14" x1="521.54" y1="402.89" x2="534.68" y2="380.97"/>
<line class="st14" x1="552.86" y1="353.09" x2="566" y2="331.17"/>
<line class="st14" x1="597.25" y1="448.39" x2="610.39" y2="426.47"/>
<line class="st14" x1="627.57" y1="398.59" x2="640.71" y2="376.67"/>
<line class="st14" x1="669" y1="486.83" x2="682.14" y2="464.91"/>
<line class="st14" x1="700.32" y1="437.03" x2="713.46" y2="415.11"/>
<line class="st2" x1="458.5" y1="129.5" x2="490.5" y2="117.5"/>
<line class="st15" x1="570.5" y1="94.5" x2="587" y2="90"/>
<line class="st16" x1="418.26" y1="218.22" x2="429.93" y2="198.77"/>
<line class="st16" x1="392.32" y1="261.02" x2="403.99" y2="241.57"/>
<path class="st16" d="M350.17,312.25c0,0,11.67,1.3,18.81-16.21"/>
<path class="st16" d="M309.31,364.78c0,0,12.97,3.89,24.64-10.38"/>
<g>
</g>
<g>
</g>
<g>
</g>
<g>
</g>
<g>
</g>
<g>
</g>
<g>
</g>
<g>
</g>
<g>
</g>
<g>
</g>
<g>
</g>
<g>
</g>
<g>
</g>
<g>
</g>
<g>
</g>
</svg>
