<?xml version="1.0" encoding="utf-8"?>
<!-- Generator: Adobe Illustrator 23.0.1, SVG Export Plug-In . SVG Version: 6.00 Build 0)  -->
<svg version="1.1" id="Layer_1" xmlns="http://www.w3.org/2000/svg" xmlns:xlink="http://www.w3.org/1999/xlink" x="0px" y="0px"
	 viewBox="0 0 1024 256" style="enable-background:new 0 0 1024 256;" xml:space="preserve">
<style type="text/css">
	.st0{fill:#FFFFFF;stroke:#000000;stroke-miterlimit:10;}
	.st1{fill:#999999;}
	.st2{fill:#737373;stroke:#737373;stroke-width:6;stroke-miterlimit:10;}
	.st3{fill:#737373;}
	.st4{fill:none;stroke:#666666;stroke-width:27;stroke-linecap:round;stroke-miterlimit:10;}
	.st5{fill:none;stroke:#666666;stroke-width:17;stroke-linecap:round;stroke-miterlimit:10;}
	.st6{fill:none;stroke:#666666;stroke-width:24;stroke-linecap:round;stroke-miterlimit:10;}
	.st7{fill:none;stroke:#666666;stroke-width:9;stroke-linecap:round;stroke-miterlimit:10;}
	.st8{fill:none;stroke:#666666;stroke-width:6;stroke-linecap:round;stroke-miterlimit:10;}
</style>
<path class="st0" d="M-27.5,192.5"/>
<path class="st1" d="M1024,256H1V119C1,119,247,7,513,7s511,112,511,112"/>
<g>
	<path class="st2" d="M623.4,100.1c2,1.6,3.5,3.8,4.6,6.4c0.3,0.8,0.4,1.5,0.3,2.1c-0.1,0.8-0.6,1.4-1.4,1.8c-0.5,0.2-1,0.2-1.5,0.1
		c-0.5-0.1-1-0.3-1.5-0.7c-0.4-0.4-0.7-0.8-0.9-1.3c-0.7-1.8-1.7-3.3-3.1-4.4c-1.3-1.1-3.2-1.9-5.4-2.2c-2.8-0.5-5.1-0.3-7,0.5
		s-3,2.2-3.4,4.3c-0.3,1.9,0.2,3.6,1.5,5.2s3.9,2.9,7.8,3.9c4.3,1.2,7.5,3.1,9.6,5.7c2,2.6,2.8,5.8,2.2,9.4
		c-0.4,2.6-1.5,4.8-3.3,6.4c-1.8,1.6-3.9,2.7-6.4,3.3c-2.5,0.5-5.1,0.6-7.8,0.1c-3.6-0.6-6.7-2-9.3-4.1c-2.6-2.1-4.3-4.5-5-7.3
		c-0.1-0.5-0.1-0.9-0.1-1.1c0.1-0.5,0.4-1,0.8-1.4c0.5-0.4,1.1-0.5,1.8-0.6c0.1,0,0.3,0,0.6,0c0.6,0.1,1.1,0.4,1.6,0.8
		c0.5,0.4,0.8,1,1,1.6c0.4,1.5,1.5,3,3.3,4.3c1.8,1.3,3.8,2.2,6.2,2.6c2.8,0.5,5.2,0.2,7.3-0.7c2.1-0.9,3.4-2.5,3.7-4.7
		c0.3-2.1-0.2-4-1.5-5.8c-1.4-1.8-3.7-3.1-6.9-4c-4.5-1.2-7.8-3.1-10-5.8c-2.2-2.7-3.1-5.6-2.5-9c0.4-2.4,1.4-4.3,3-5.7
		c1.6-1.5,3.7-2.5,6.2-3s5.2-0.5,8.1,0C618.9,97.4,621.5,98.5,623.4,100.1z"/>
	<path class="st2" d="M642.7,102.8c0.6-0.4,1.4-0.6,2.2-0.5c0.8,0.1,1.5,0.5,1.9,1.1c0.4,0.6,0.6,1.4,0.5,2.2l-4.3,25.7
		c-0.3,1.9-0.1,3.8,0.7,5.5s2,3.2,3.7,4.3c1.7,1.2,3.8,2,6.1,2.4c2.3,0.4,4.4,0.3,6.3-0.3s3.5-1.5,4.8-2.9c1.3-1.4,2.1-3,2.4-5
		l4.3-25.7c0.1-0.8,0.5-1.5,1.2-1.9c0.6-0.4,1.4-0.6,2.2-0.5s1.4,0.5,1.9,1.1c0.4,0.6,0.6,1.4,0.5,2.2l-4.3,25.7
		c-0.5,2.9-1.7,5.4-3.6,7.5s-4.3,3.5-7.1,4.4s-6,1-9.4,0.4c-3.5-0.6-6.5-1.8-9-3.5c-2.5-1.8-4.3-3.9-5.5-6.5c-1.1-2.6-1.5-5.3-1-8.3
		l4.3-25.7C641.7,103.8,642.1,103.2,642.7,102.8z"/>
	<path class="st2" d="M689.3,153.1c-0.6,0.5-1.4,0.6-2.2,0.5c-0.8-0.1-1.4-0.5-1.9-1.2s-0.6-1.4-0.5-2.2L691,113
		c0.1-0.8,0.5-1.5,1.2-1.9c0.6-0.4,1.4-0.6,2.2-0.5l11,1.9c2.7,0.5,5,1.5,7,3s3.3,3.5,4.2,5.9c0.8,2.4,1,4.9,0.5,7.7
		c-0.5,2.7-1.5,5-3,6.9s-3.5,3.2-5.8,4s-4.9,1-7.6,0.5l-8.1-1.4l-2,12C690.3,152,689.9,152.6,689.3,153.1z M708,133.9
		c1.9-1.3,3-3.2,3.5-5.7c0.4-2.6,0-4.9-1.3-6.8s-3.2-3.1-5.7-3.6l-8.1-1.4l-3,17.5l8.1,1.4C704,135.7,706.2,135.2,708,133.9z"/>
	<path class="st2" d="M726.5,159.4c-0.6,0.5-1.4,0.6-2.2,0.5c-0.8-0.1-1.4-0.5-1.9-1.2c-0.5-0.6-0.6-1.4-0.5-2.2l6.3-37.2
		c0.1-0.8,0.5-1.5,1.2-1.9c0.6-0.4,1.4-0.6,2.2-0.5l11,1.9c2.7,0.5,5,1.5,7,3s3.3,3.5,4.2,5.9c0.8,2.4,1,4.9,0.5,7.7
		c-0.5,2.7-1.5,5-3,6.9s-3.5,3.2-5.8,4s-4.9,1-7.6,0.5l-8.1-1.4l-2,12C727.5,158.3,727.1,158.9,726.5,159.4z M745.2,140.1
		c1.9-1.3,3-3.2,3.5-5.7c0.4-2.6,0-4.9-1.3-6.8s-3.2-3.1-5.7-3.6l-8.1-1.4l-3,17.5l8.1,1.4C741.1,141.9,743.3,141.5,745.2,140.1z"/>
	<path class="st2" d="M796.6,130.2c3,2.4,5.2,5.5,6.4,9.1s1.6,7.6,0.9,11.9c-0.7,4.3-2.3,7.9-4.7,11c-2.4,3-5.4,5.2-9,6.5
		c-3.6,1.3-7.5,1.6-11.8,0.9c-4.3-0.7-7.9-2.3-10.9-4.7c-3-2.4-5.1-5.5-6.4-9.1c-1.3-3.7-1.5-7.6-0.8-11.9c0.7-4.3,2.3-7.9,4.7-10.9
		s5.4-5.2,9-6.5s7.6-1.6,11.8-0.9C790,126.2,793.6,127.7,796.6,130.2z M776.1,131.4c-2.7,1-5,2.7-6.8,5.1c-1.8,2.3-3,5.1-3.5,8.2
		c-0.5,3.1-0.3,6.1,0.7,8.9c1,2.8,2.6,5.2,4.8,7.1c2.2,1.9,4.9,3.1,8,3.6c3.1,0.5,6,0.3,8.8-0.8c2.7-1.1,5-2.8,6.8-5.1
		c1.8-2.3,3-5.1,3.5-8.2c0.5-3.1,0.3-6.1-0.6-8.9s-2.6-5.1-4.8-7c-2.2-1.9-4.9-3.1-8.1-3.6C781.7,130.1,778.8,130.4,776.1,131.4z"/>
	<path class="st2" d="M841,176.8c-0.1,0.7-0.5,1.3-1,1.7c-0.6,0.4-1.3,0.5-2.1,0.4c-1.1-0.2-1.8-0.8-2.3-1.8l-6.9-16.8l-1-0.2
		l-7-1.2l-2.3,13.7c-0.1,0.8-0.5,1.4-1.1,1.9c-0.6,0.5-1.4,0.6-2.2,0.5c-0.8-0.1-1.4-0.5-1.9-1.2s-0.6-1.4-0.5-2.2l6.3-37.2
		c0.1-0.8,0.5-1.5,1.2-1.9c0.6-0.4,1.4-0.6,2.2-0.5l9.9,1.7c2.7,0.5,5,1.4,7,2.9c2,1.5,3.3,3.4,4.2,5.6c0.8,2.3,1,4.7,0.6,7.3
		c-0.4,2.6-1.5,4.8-3.2,6.6c-1.7,1.8-3.7,3-6.2,3.7l6.1,15C841,175.6,841.1,176.2,841,176.8z M828.6,155c2.5,0.4,4.7,0.1,6.5-1.1
		c1.8-1.1,3-2.8,3.3-5.1c0.4-2.4-0.1-4.5-1.4-6.4s-3.3-2.9-5.8-3.4l-7-1.2l-2.7,15.8L828.6,155z"/>
	<path class="st2" d="M886.2,143.7c0.4,0.6,0.5,1.3,0.4,2s-0.5,1.4-1.1,1.8s-1.3,0.5-2,0.4l-11.8-2l-5.9,34.8
		c-0.1,0.8-0.5,1.4-1.2,1.9c-0.6,0.5-1.4,0.6-2.2,0.5s-1.4-0.5-1.9-1.2c-0.5-0.6-0.6-1.4-0.5-2.2L866,145l-11.9-2
		c-0.8-0.1-1.4-0.5-1.8-1.1s-0.5-1.3-0.4-2s0.5-1.4,1.1-1.8s1.3-0.5,2-0.4l29.4,5C885.2,142.8,885.8,143.1,886.2,143.7z"/>
	<path class="st2" d="M919.6,188c0.4,0.6,0.6,1.2,0.5,2c-0.1,0.8-0.5,1.4-1.1,1.8s-1.3,0.5-2.2,0.4l-24.9-4.2
		c-0.8-0.1-1.4-0.5-1.9-1.2s-0.6-1.4-0.5-2.2l6.3-37.2c0.1-0.8,0.5-1.5,1.2-1.9c0.6-0.4,1.4-0.6,2.2-0.5l24.9,4.2
		c0.8,0.1,1.5,0.5,1.9,1.1s0.6,1.3,0.4,2.1c-0.1,0.8-0.5,1.4-1.1,1.7c-0.6,0.4-1.3,0.5-2.2,0.4l-22-3.7l-2.3,13.4l15.8,2.7
		c0.8,0.1,1.4,0.5,1.9,1.1s0.6,1.3,0.5,2s-0.5,1.4-1.1,1.8c-0.6,0.4-1.3,0.5-2.1,0.4l-15.8-2.7l-2.3,13.8l22,3.7
		C918.5,187.1,919.2,187.5,919.6,188z"/>
	<path class="st2" d="M959.4,196.8c-0.1,0.7-0.5,1.3-1,1.7c-0.6,0.4-1.3,0.5-2.1,0.4c-1.1-0.2-1.8-0.8-2.2-1.8l-6.9-16.8l-1-0.2
		l-7-1.2l-2.3,13.7c-0.1,0.8-0.5,1.4-1.1,1.9c-0.6,0.5-1.4,0.6-2.2,0.5c-0.8-0.1-1.4-0.5-1.9-1.2s-0.6-1.4-0.5-2.2l6.3-37.2
		c0.1-0.8,0.5-1.5,1.2-1.9c0.6-0.4,1.4-0.6,2.2-0.5l9.9,1.7c2.7,0.5,5,1.4,7,2.9c2,1.5,3.3,3.4,4.2,5.6c0.8,2.3,1,4.7,0.6,7.3
		c-0.4,2.6-1.5,4.8-3.2,6.6c-1.7,1.8-3.7,3-6.2,3.7l6.1,15C959.4,195.5,959.5,196.2,959.4,196.8z M947,174.9
		c2.5,0.4,4.7,0.1,6.5-1.1c1.8-1.1,3-2.8,3.3-5.1c0.4-2.4-0.1-4.5-1.4-6.4s-3.3-2.9-5.8-3.4l-7-1.2l-2.7,15.8L947,174.9z"/>
</g>
<circle class="st3" cx="113" cy="238" r="45"/>
<circle class="st3" cx="420.5" cy="184.5" r="107.5"/>
<circle class="st3" cx="721" cy="64" r="18"/>
<circle class="st3" cx="825" cy="272" r="58"/>
<circle class="st3" cx="142.5" cy="125.5" r="34.5"/>
<path class="st4" d="M491.5,135.5c0,0,29,44,0,93c-29,48.9-71,48-71,48"/>
<path class="st4" d="M846.5,242.5c0,0,21,12,14,41c-6.8,28.3-39,27-39,27"/>
<path class="st5" d="M161.5,115.5c0,0,6.3,9.9,0.1,20.3c-6.2,10.4-15.1,11.7-15.1,11.7"/>
<path class="st6" d="M131.5,217.5c0,0,16.7,17.8,4.2,35.5c-10.2,14.5-23.2,14.5-23.2,14.5"/>
<path class="st7" d="M728.9,56.8c0,0,3.5,5.3,1.2,10.6c-1.8,4.1-5,7-9.1,6.6"/>
<path class="st8" d="M623.3,125.1c0,0,1.8,7.2-1.8,10.8c-3.6,3.6-8.1,4.5-8.1,4.5"/>
<path class="st8" d="M673.7,125.1c0,0-0.9,11.7-3.6,16.2c-2.7,4.5-7.2,5.4-7.2,5.4"/>
<path class="st8" d="M700.7,139.5c5.4,0,9,0,13.5-5.4"/>
<path class="st8" d="M737.5,145.8c5.4,0,9,0,13.5-5.4"/>
<path class="st8" d="M802.3,152.1c0,0-2.7,13.6-17.1,16.2"/>
<path class="st8" d="M842.6,151.1c0,0-1.5,4.6-4.1,5.7"/>
<path class="st8" d="M835.6,165.6c0,0,4.5,9,4.5,10.8"/>
<line class="st8" x1="864.4" y1="180" x2="868.9" y2="153.9"/>
<line class="st8" x1="898.6" y1="188.1" x2="916.6" y2="190.8"/>
<line class="st8" x1="904" y1="169.2" x2="914.8" y2="171"/>
<path class="st8" d="M960.5,170c0,0-1.5,4.6-4.1,5.7"/>
<path class="st8" d="M953.5,184.5c0,0,4.5,9,4.5,10.8"/>
</svg>
