<?xml version="1.0" encoding="utf-8"?>
<!-- Generator: Adobe Illustrator 23.0.0, SVG Export Plug-In . SVG Version: 6.00 Build 0)  -->
<svg version="1.1" id="Layer_1" xmlns="http://www.w3.org/2000/svg" xmlns:xlink="http://www.w3.org/1999/xlink" x="0px" y="0px"
	 viewBox="0 0 256 128" style="enable-background:new 0 0 256 128;" xml:space="preserve">
<style type="text/css">
	.st0{fill:none;stroke:#B7CCFF;stroke-width:20;stroke-linecap:round;stroke-linejoin:round;stroke-miterlimit:10;}
	.st1{fill:none;stroke:#DEECFF;stroke-width:8;stroke-linecap:round;stroke-linejoin:round;stroke-miterlimit:10;}
	.st2{fill:#EBEDDA;}
	.st3{fill:none;stroke:#FEFFEF;stroke-width:11;stroke-linecap:round;stroke-linejoin:round;stroke-miterlimit:10;}
	.st4{fill:none;stroke:#FEFFEF;stroke-width:6;stroke-linecap:round;stroke-linejoin:round;stroke-miterlimit:10;}
	.st5{fill:#4F55A5;stroke:#4F55A5;stroke-width:3;stroke-linecap:round;stroke-linejoin:round;stroke-miterlimit:10;}
	.st6{fill:none;stroke:#5E5EBD;stroke-width:2;stroke-linecap:round;stroke-linejoin:round;stroke-miterlimit:10;}
</style>
<line class="st0" x1="62.4" y1="49.9" x2="186" y2="12"/>
<line class="st0" x1="94" y1="99" x2="222" y2="60"/>
<line class="st0" x1="67.5" y1="67.4" x2="212" y2="23"/>
<line class="st0" x1="76" y1="85" x2="236" y2="35"/>
<line class="st1" x1="212" y1="28" x2="168" y2="42"/>
<g>
	<circle class="st2" cx="60.5" cy="76.2" r="48.5"/>
</g>
<path class="st3" d="M95.5,77.6c0,0,0.7,27.6-29,34.4"/>
<path class="st4" d="M25.5,54.7c0,0,5.4-14.8,21.6-16.2"/>
<line class="st1" x1="188" y1="15" x2="143" y2="29"/>
<line class="st1" x1="235.4" y1="39.1" x2="165" y2="61"/>
<g>
	<path class="st5" d="M99.7,42.9c1.3,0.7,2.3,1.7,3,3c0.7,1.3,1.1,2.8,1.1,4.4c0,1.7-0.4,3.1-1.1,4.4c-0.7,1.3-1.7,2.3-3,3.1
		c-1.3,0.7-2.8,1.1-4.4,1.1h-4c-0.3,0-0.6-0.1-0.8-0.3c-0.2-0.2-0.3-0.5-0.3-0.8V42.9c0-0.3,0.1-0.6,0.3-0.8
		c0.2-0.2,0.5-0.3,0.8-0.3h4C97,41.8,98.4,42.1,99.7,42.9z M98.6,56.1c1-0.6,1.7-1.3,2.2-2.3c0.5-1,0.8-2.1,0.8-3.4
		c0-1.3-0.3-2.4-0.8-3.4c-0.5-1-1.3-1.8-2.2-2.3c-1-0.6-2-0.8-3.3-0.8h-2.8v13.1h2.8C96.5,56.9,97.6,56.6,98.6,56.1z"/>
	<path class="st5" d="M110.1,42.1c0.2-0.2,0.5-0.3,0.8-0.3c0.3,0,0.6,0.1,0.8,0.3s0.3,0.5,0.3,0.8v14.9c0,0.3-0.1,0.6-0.3,0.8
		c-0.2,0.2-0.5,0.3-0.8,0.3c-0.3,0-0.6-0.1-0.8-0.3c-0.2-0.2-0.3-0.5-0.3-0.8V42.9C109.7,42.6,109.8,42.3,110.1,42.1z"/>
	<path class="st5" d="M131.7,57.8c0,0.3-0.1,0.6-0.3,0.8c-0.2,0.2-0.5,0.3-0.8,0.3c-0.2,0-0.4-0.1-0.6-0.2c-0.2-0.1-0.3-0.3-0.4-0.5
		l-1.2-3.1h-7.9l-1.3,3.1c-0.1,0.2-0.3,0.4-0.4,0.5c-0.2,0.1-0.4,0.2-0.6,0.2c-0.3,0-0.6-0.1-0.8-0.3s-0.3-0.5-0.3-0.8
		c0-0.1,0-0.3,0.1-0.5l6.2-14.8c0.2-0.5,0.6-0.8,1.1-0.8c0.5,0,0.9,0.3,1.1,0.8l6.2,14.8C131.7,57.5,131.7,57.7,131.7,57.8z
		 M127.5,53.3l-3.1-7.8l-3.2,7.8H127.5z"/>
	<path class="st5" d="M153.4,42.1c0.2,0.2,0.3,0.5,0.3,0.8v14.9c0,0.3-0.1,0.6-0.3,0.8c-0.2,0.2-0.5,0.3-0.8,0.3
		c-0.3,0-0.6-0.1-0.8-0.3c-0.2-0.2-0.3-0.5-0.3-0.8V46.9l-5.3,10.8c-0.3,0.4-0.6,0.6-1,0.6c-0.5,0-0.8-0.2-1.1-0.7l-5.3-10.5v10.7
		c0,0.3-0.1,0.6-0.3,0.8c-0.2,0.2-0.5,0.3-0.8,0.3s-0.6-0.1-0.8-0.3c-0.2-0.2-0.3-0.5-0.3-0.8V42.9c0-0.3,0.1-0.6,0.3-0.8
		c0.2-0.2,0.5-0.3,0.8-0.3c0.4,0,0.8,0.2,1,0.6l6.5,13.1l6.4-13.1c0.2-0.4,0.6-0.6,1-0.6C152.9,41.8,153.2,41.9,153.4,42.1z"/>
	<path class="st5" d="M172.9,42.7c1.3,0.7,2.4,1.8,3.1,3.1c0.7,1.3,1.1,2.9,1.1,4.6c0,1.7-0.4,3.2-1.1,4.6c-0.7,1.3-1.8,2.4-3.1,3.1
		s-2.8,1.1-4.5,1.1s-3.2-0.4-4.5-1.1s-2.4-1.8-3.1-3.1c-0.7-1.3-1.1-2.9-1.1-4.6c0-1.7,0.4-3.2,1.1-4.6s1.8-2.4,3.1-3.1
		c1.3-0.7,2.8-1.1,4.5-1.1C170.1,41.5,171.6,41.9,172.9,42.7z M165,44.5c-1,0.6-1.8,1.4-2.3,2.4c-0.6,1-0.8,2.2-0.8,3.4
		c0,1.3,0.3,2.4,0.8,3.4c0.6,1,1.3,1.8,2.3,2.4c1,0.6,2.1,0.9,3.4,0.9c1.2,0,2.4-0.3,3.4-0.9c1-0.6,1.8-1.4,2.3-2.4
		c0.6-1,0.8-2.2,0.8-3.4c0-1.3-0.3-2.4-0.8-3.4c-0.6-1-1.3-1.8-2.3-2.4c-1-0.6-2.1-0.9-3.4-0.9C167.2,43.6,166,43.9,165,44.5z"/>
	<path class="st5" d="M195,42.1c0.2-0.2,0.5-0.3,0.8-0.3c0.3,0,0.6,0.1,0.8,0.3c0.2,0.2,0.3,0.5,0.3,0.8v14.9c0,0.3-0.1,0.6-0.3,0.8
		c-0.2,0.2-0.5,0.3-0.8,0.3c-0.2,0-0.3,0-0.5-0.1c-0.2-0.1-0.3-0.2-0.4-0.3l-9.6-12.8v12c0,0.3-0.1,0.6-0.3,0.8
		c-0.2,0.2-0.5,0.3-0.8,0.3c-0.3,0-0.6-0.1-0.8-0.3c-0.2-0.2-0.3-0.5-0.3-0.8V42.9c0-0.3,0.1-0.6,0.3-0.8c0.2-0.2,0.5-0.3,0.8-0.3
		c0.2,0,0.3,0,0.5,0.1c0.2,0.1,0.3,0.2,0.4,0.3l9.6,12.8v-12C194.7,42.6,194.8,42.3,195,42.1z"/>
	<path class="st5" d="M213.2,42.9c1.3,0.7,2.3,1.7,3,3c0.7,1.3,1.1,2.8,1.1,4.4c0,1.7-0.4,3.1-1.1,4.4c-0.7,1.3-1.7,2.3-3,3.1
		c-1.3,0.7-2.8,1.1-4.4,1.1h-4c-0.3,0-0.6-0.1-0.8-0.3c-0.2-0.2-0.3-0.5-0.3-0.8V42.9c0-0.3,0.1-0.6,0.3-0.8
		c0.2-0.2,0.5-0.3,0.8-0.3h4C210.5,41.8,211.9,42.1,213.2,42.9z M212.1,56.1c1-0.6,1.7-1.3,2.2-2.3c0.5-1,0.8-2.1,0.8-3.4
		c0-1.3-0.3-2.4-0.8-3.4c-0.5-1-1.3-1.8-2.2-2.3c-1-0.6-2-0.8-3.3-0.8H206v13.1h2.8C210,56.9,211.1,56.6,212.1,56.1z"/>
</g>
<path class="st6" d="M96.5,58.5c0,0,3.2,0.3,6-4"/>
<line class="st6" x1="112" y1="58" x2="112" y2="52"/>
<line class="st6" x1="119" y1="58" x2="120.1" y2="55"/>
<line class="st6" x1="121.8" y1="51" x2="122.2" y2="50"/>
<line class="st6" x1="131.5" y1="58" x2="128.5" y2="51"/>
<line class="st6" x1="138.5" y1="58" x2="138.5" y2="53"/>
<line class="st6" x1="153.5" y1="58" x2="153.5" y2="51"/>
<line class="st6" x1="145.8" y1="57.5" x2="147.8" y2="53.5"/>
<path class="st6" d="M170,59c0,0,4,0,6-5"/>
<line class="st6" x1="185" y1="58" x2="185" y2="51"/>
<line class="st6" x1="196.5" y1="58" x2="196.5" y2="49"/>
<path class="st6" d="M209,59c0,0,4,0,7-4"/>
<line class="st1" x1="220" y1="64" x2="164.8" y2="80.9"/>
<g>
</g>
<g>
</g>
<g>
</g>
<g>
</g>
<g>
</g>
<g>
</g>
<g>
</g>
<g>
</g>
<g>
</g>
<g>
</g>
<g>
</g>
<g>
</g>
<g>
</g>
<g>
</g>
<g>
</g>
</svg>
