<?xml version="1.0" encoding="utf-8"?>
<!-- Generator: Adobe Illustrator 23.0.1, SVG Export Plug-In . SVG Version: 6.00 Build 0)  -->
<svg version="1.1" id="Layer_1" xmlns="http://www.w3.org/2000/svg" xmlns:xlink="http://www.w3.org/1999/xlink" x="0px" y="0px"
	 viewBox="0 0 64 64" style="enable-background:new 0 0 64 64;" xml:space="preserve">
<style type="text/css">
	.st0{fill:#FFFFFF;}
	.st1{fill:#F7F7F7;}
	.st2{fill:#363636;}
</style>
<rect x="0" class="st0" width="64" height="64"/>
<polyline class="st1" points="53,0 13,64 64,64 64,0 32,0 "/>
<g>
	<path class="st2" d="M16.16,35.89c0.21,0.21,0.31,0.47,0.31,0.78s-0.1,0.57-0.31,0.78c-0.21,0.21-0.47,0.31-0.78,0.31H6.69
		c-0.31,0-0.56-0.11-0.77-0.31c-0.2-0.21-0.3-0.47-0.3-0.78V22.45c0-0.31,0.1-0.57,0.31-0.78s0.46-0.31,0.76-0.31
		c0.31,0,0.57,0.1,0.78,0.31c0.21,0.21,0.31,0.47,0.31,0.78v13.13h7.6C15.69,35.58,15.95,35.68,16.16,35.89z"/>
	<path class="st2" d="M27.66,26.94c0.88,0.5,1.56,1.19,2.06,2.07c0.5,0.88,0.75,1.89,0.75,3.02c0,1.12-0.25,2.12-0.73,3
		c-0.49,0.88-1.17,1.57-2.05,2.07c-0.88,0.5-1.87,0.75-2.99,0.75c-1.12,0-2.12-0.25-3-0.75c-0.88-0.5-1.57-1.19-2.06-2.07
		c-0.49-0.88-0.74-1.88-0.74-3c0-1.13,0.25-2.14,0.74-3.02c0.49-0.88,1.18-1.57,2.06-2.07c0.88-0.5,1.88-0.75,3-0.75
		C25.79,26.19,26.78,26.44,27.66,26.94z M22.77,28.59c-0.57,0.34-1.01,0.81-1.33,1.41c-0.32,0.6-0.48,1.28-0.48,2.04
		s0.16,1.43,0.48,2.03c0.32,0.6,0.77,1.06,1.33,1.4c0.57,0.34,1.21,0.5,1.92,0.5c0.71,0,1.35-0.17,1.92-0.5s1.01-0.8,1.32-1.4
		c0.32-0.59,0.47-1.27,0.47-2.03s-0.16-1.44-0.47-2.04c-0.31-0.6-0.76-1.07-1.32-1.41c-0.57-0.34-1.21-0.5-1.92-0.5
		C23.97,28.08,23.33,28.25,22.77,28.59z"/>
	<path class="st2" d="M42.42,26.94c0.88,0.5,1.56,1.19,2.06,2.07c0.5,0.88,0.75,1.89,0.75,3.02v4.54c0,1.11-0.25,2.11-0.74,3.02
		s-1.18,1.63-2.07,2.15s-1.89,0.79-3.01,0.79c-1.01,0-1.95-0.2-2.81-0.6c-0.87-0.4-1.6-0.97-2.18-1.71
		c-0.15-0.2-0.23-0.39-0.23-0.59c0-0.29,0.15-0.55,0.44-0.76c0.2-0.13,0.39-0.19,0.59-0.19c0.35,0,0.64,0.15,0.86,0.44
		c0.38,0.49,0.85,0.86,1.43,1.12s1.23,0.39,1.95,0.39c0.69,0,1.31-0.17,1.87-0.49c0.56-0.33,1.01-0.81,1.34-1.45
		c0.34-0.64,0.5-1.4,0.5-2.28v-1.03c-0.43,0.77-1.01,1.37-1.72,1.81c-0.71,0.43-1.52,0.65-2.42,0.65c-1.04,0-1.96-0.25-2.78-0.75
		c-0.82-0.5-1.46-1.19-1.91-2.07c-0.46-0.88-0.68-1.88-0.68-3c0-1.13,0.25-2.14,0.74-3.02c0.49-0.88,1.18-1.57,2.06-2.07
		c0.88-0.5,1.88-0.75,3-0.75C40.56,26.19,41.55,26.44,42.42,26.94z M41.37,35.45c0.57-0.34,1.01-0.8,1.32-1.4
		c0.31-0.59,0.47-1.27,0.47-2.03s-0.16-1.44-0.47-2.04c-0.32-0.6-0.76-1.07-1.32-1.41c-0.57-0.34-1.21-0.5-1.92-0.5
		s-1.35,0.17-1.92,0.5c-0.57,0.34-1.01,0.81-1.33,1.41c-0.32,0.6-0.48,1.28-0.48,2.04s0.16,1.43,0.48,2.03
		c0.32,0.6,0.77,1.06,1.33,1.4c0.57,0.34,1.21,0.5,1.92,0.5S40.8,35.79,41.37,35.45z"/>
	<path class="st2" d="M57.18,26.94c0.88,0.5,1.56,1.19,2.06,2.07c0.5,0.88,0.75,1.89,0.75,3.02c0,1.12-0.25,2.12-0.74,3
		c-0.49,0.88-1.17,1.57-2.05,2.07c-0.88,0.5-1.87,0.75-2.99,0.75s-2.12-0.25-3-0.75c-0.88-0.5-1.57-1.19-2.06-2.07
		c-0.49-0.88-0.74-1.88-0.74-3c0-1.13,0.25-2.14,0.74-3.02c0.49-0.88,1.18-1.57,2.06-2.07c0.88-0.5,1.88-0.75,3-0.75
		C55.32,26.19,56.31,26.44,57.18,26.94z M52.29,28.59c-0.57,0.34-1.01,0.81-1.33,1.41c-0.32,0.6-0.48,1.28-0.48,2.04
		s0.16,1.43,0.48,2.03c0.32,0.6,0.77,1.06,1.33,1.4c0.57,0.34,1.21,0.5,1.92,0.5s1.35-0.17,1.92-0.5s1.01-0.8,1.32-1.4
		c0.31-0.59,0.47-1.27,0.47-2.03s-0.16-1.44-0.47-2.04c-0.32-0.6-0.76-1.07-1.32-1.41c-0.57-0.34-1.21-0.5-1.92-0.5
		S52.86,28.25,52.29,28.59z"/>
</g>
<g>
</g>
<g>
</g>
<g>
</g>
<g>
</g>
<g>
</g>
<g>
</g>
<g>
</g>
<g>
</g>
<g>
</g>
<g>
</g>
<g>
</g>
<g>
</g>
<g>
</g>
<g>
</g>
<g>
</g>
</svg>
