<?xml version="1.0" encoding="utf-8"?>
<!-- Generator: Adobe Illustrator 23.0.0, SVG Export Plug-In . SVG Version: 6.00 Build 0)  -->
<svg version="1.1" id="Layer_1" xmlns="http://www.w3.org/2000/svg" xmlns:xlink="http://www.w3.org/1999/xlink" x="0px" y="0px"
	 viewBox="0 0 1024 320" style="enable-background:new 0 0 1024 320;" xml:space="preserve">
<style type="text/css">
	.st0{fill:#D6BAD4;}
	.st1{fill:#F7F7F7;}
	.st2{fill:#00C0CC;stroke:#00C0CC;stroke-width:4;stroke-miterlimit:10;}
	.st3{fill:#D1D1D1;}
	.st4{fill:#453544;}
	.st5{fill:#FAFAFA;}
	.st6{fill:#F7F7F7;stroke:#DBDBDB;stroke-width:8;stroke-linecap:round;stroke-linejoin:round;stroke-miterlimit:10;}
	.st7{fill:#F7F7F7;stroke:#332533;stroke-width:8;stroke-linecap:round;stroke-linejoin:round;stroke-miterlimit:10;}
	.st8{fill:#F7F7F7;stroke:#A8A8A8;stroke-width:8;stroke-linecap:round;stroke-linejoin:round;stroke-miterlimit:10;}
	.st9{fill:none;stroke:#2FE1EB;stroke-width:5;stroke-linecap:round;stroke-linejoin:round;stroke-miterlimit:10;}
	.st10{fill:#00C0CC;stroke:#2FE1EB;stroke-width:5;stroke-linecap:round;stroke-linejoin:round;stroke-miterlimit:10;}
</style>
<rect x="654" y="93" class="st0" width="93" height="158"/>
<rect x="379" y="123.5" class="st1" width="514" height="87"/>
<g>
	<path class="st2" d="M481.2,189.9c-0.5,0.6-1.2,0.8-2.1,0.8c-0.8,0-1.5-0.3-2.1-0.8c-0.6-0.6-0.8-1.3-0.8-2.1v-37.9
		c0-0.9,0.3-1.6,0.8-2.1c0.6-0.5,1.3-0.8,2.1-0.8h11.2c2.8,0,5.2,0.6,7.4,1.8c2.2,1.2,3.9,2.9,5.1,5.2c1.2,2.2,1.8,4.7,1.8,7.5
		c0,2.7-0.6,5.2-1.8,7.3c-1.2,2.1-2.9,3.8-5.1,5c-2.2,1.2-4.7,1.8-7.4,1.8H482v12.3C482,188.6,481.8,189.3,481.2,189.9z
		 M496.6,167.7c1.6-1.6,2.5-3.7,2.5-6.2c0-2.7-0.8-4.8-2.5-6.6c-1.6-1.7-3.7-2.6-6.3-2.6H482v17.8h8.3
		C492.8,170.2,494.9,169.4,496.6,167.7z"/>
	<path class="st2" d="M541.7,185.7c0.6,0.6,0.8,1.3,0.8,2.1c0,0.8-0.3,1.5-0.8,2.1c-0.6,0.6-1.3,0.8-2.1,0.8h-23.2
		c-0.8,0-1.5-0.3-2-0.8c-0.5-0.6-0.8-1.3-0.8-2.1v-37.9c0-0.8,0.3-1.5,0.8-2.1c0.6-0.6,1.2-0.8,2-0.8c0.8,0,1.5,0.3,2.1,0.8
		c0.6,0.6,0.8,1.3,0.8,2.1v35h20.3C540.4,184.9,541.1,185.2,541.7,185.7z"/>
	<path class="st2" d="M584.9,187.9c0,0.8-0.3,1.5-0.8,2c-0.6,0.6-1.3,0.8-2.1,0.8c-0.6,0-1.1-0.2-1.6-0.5s-0.9-0.8-1.1-1.3l-3.1-7.8
		h-20.1l-3.2,7.8c-0.3,0.6-0.6,1-1.1,1.3c-0.5,0.3-1,0.5-1.6,0.5c-0.8,0-1.5-0.3-2-0.9c-0.5-0.6-0.8-1.3-0.8-2
		c0-0.4,0.1-0.8,0.3-1.3l15.7-37.6c0.6-1.3,1.5-2,2.7-2c1.3,0,2.3,0.7,2.7,2l15.8,37.7C584.9,187.1,584.9,187.5,584.9,187.9z
		 M574.3,176.3l-8-19.9l-8.2,19.9H574.3z"/>
	<path class="st2" d="M619.1,147.7c0.5,0.5,0.8,1.1,0.8,1.9c0,0.8-0.3,1.4-0.8,1.9c-0.5,0.5-1.1,0.8-1.9,0.8h-12v35.4
		c0,0.8-0.3,1.5-0.8,2.1c-0.6,0.6-1.3,0.8-2.1,0.8c-0.8,0-1.5-0.3-2.1-0.8c-0.6-0.6-0.8-1.3-0.8-2.1v-35.4h-12.1
		c-0.8,0-1.4-0.3-1.9-0.8c-0.5-0.5-0.8-1.1-0.8-1.9c0-0.8,0.3-1.4,0.8-1.9s1.1-0.8,1.9-0.8h30C618,147,618.6,147.2,619.1,147.7z"/>
	<path class="st2" d="M629.6,147.8c0.6-0.5,1.3-0.8,2.1-0.8c0.9,0,1.6,0.3,2.1,0.8c0.5,0.5,0.8,1.2,0.8,2.1v37.9
		c0,0.8-0.3,1.5-0.8,2.1c-0.5,0.6-1.2,0.8-2.1,0.8c-0.8,0-1.5-0.3-2.1-0.8c-0.6-0.6-0.8-1.3-0.8-2.1v-37.9
		C628.8,149,629.1,148.3,629.6,147.8z"/>
	<path class="st2" d="M678.6,147.8c0.6-0.5,1.3-0.8,2.1-0.8c0.8,0,1.5,0.3,2,0.8c0.5,0.5,0.8,1.2,0.8,2.1v37.9
		c0,0.9-0.3,1.6-0.8,2.1c-0.5,0.5-1.2,0.8-2,0.8c-0.4,0-0.8-0.1-1.3-0.3c-0.4-0.2-0.8-0.4-1-0.8l-24.4-32.5v30.6
		c0,0.8-0.3,1.5-0.8,2.1c-0.5,0.6-1.2,0.8-2.1,0.8c-0.8,0-1.5-0.3-2-0.8c-0.5-0.5-0.8-1.2-0.8-2.1v-37.9c0-0.9,0.3-1.6,0.8-2.1
		c0.5-0.5,1.2-0.8,2-0.8c0.4,0,0.8,0.1,1.2,0.3c0.4,0.2,0.7,0.5,1,0.8l24.4,32.5v-30.6C677.8,149,678.1,148.3,678.6,147.8z"/>
	<path class="st2" d="M698.1,147.8c0.6-0.5,1.3-0.8,2.1-0.8c0.9,0,1.6,0.3,2.1,0.8c0.5,0.5,0.8,1.2,0.8,2.1V176c0,2,0.5,3.8,1.6,5.3
		c1.1,1.6,2.5,2.8,4.4,3.7c1.9,0.9,4,1.3,6.5,1.3c2.3,0,4.4-0.4,6.2-1.3c1.8-0.9,3.3-2.1,4.3-3.7c1-1.6,1.5-3.3,1.5-5.3v-26.2
		c0-0.9,0.3-1.6,0.8-2.1c0.6-0.5,1.3-0.8,2.1-0.8c0.8,0,1.5,0.3,2,0.8c0.5,0.5,0.8,1.2,0.8,2.1V176c0,3-0.8,5.7-2.3,8
		c-1.5,2.4-3.6,4.2-6.3,5.5c-2.7,1.3-5.8,2-9.2,2c-3.5,0-6.7-0.7-9.5-2c-2.8-1.3-4.9-3.2-6.5-5.5c-1.5-2.4-2.3-5-2.3-8.1v-26.2
		C697.2,149,697.5,148.3,698.1,147.8z"/>
	<path class="st2" d="M790,147.8c0.6,0.6,0.8,1.3,0.8,2.1v37.9c0,0.8-0.3,1.5-0.9,2.1c-0.6,0.6-1.3,0.8-2,0.8
		c-0.8,0-1.5-0.3-2.1-0.8c-0.6-0.6-0.8-1.3-0.8-2.1V160l-13.6,27.6c-0.6,1-1.5,1.5-2.5,1.5c-1.2,0-2.1-0.6-2.7-1.7l-13.4-26.8v27.3
		c0,0.8-0.3,1.5-0.8,2.1c-0.6,0.6-1.3,0.8-2.1,0.8s-1.5-0.3-2.1-0.8c-0.6-0.6-0.8-1.3-0.8-2.1v-37.9c0-0.8,0.3-1.5,0.8-2.1
		c0.6-0.6,1.3-0.8,2.1-0.8c1.1,0,2,0.5,2.6,1.6l16.6,33.3l16.2-33.3c0.6-1,1.5-1.6,2.6-1.6C788.7,147,789.4,147.3,790,147.8z"/>
</g>
<polyline class="st3" points="379,123.5 295,137 295,197 379,210.5 "/>
<rect x="207" y="137.5" class="st1" width="88" height="59"/>
<path class="st1" d="M892.5,123.5v87l35-12.1c2.4-0.8,4-3.1,4-5.7V144c0-2.4-1.4-4.6-3.7-5.5L892.5,123.5z"/>
<path class="st4" d="M931.6,142.6l65.2-9.6c5.4-0.8,10.3,3.4,10.3,8.9v52.5c0,5.5-4.9,9.7-10.3,8.9l-65.2-9.6"/>
<polygon class="st3" points="207,138 111,150 111,185 207,197 "/>
<path class="st1" d="M111,150l-7.8,1.3c-2.4,0.4-4.2,2-4.2,3.9v23.9c0,1.7,1.5,3.3,3.7,3.8l8.3,2.1V150z"/>
<path class="st5" d="M19,170h80v-5H19c-1.1,0-2,0.9-2,2v1C17,169.1,17.9,170,19,170z"/>
<path class="st1" d="M555,35h314.9l35.3,11.7c1.6,0.5,2.7,2.1,2.7,3.8v44.5c0,1.8-1.2,3.3-2.9,3.8L869.9,109H555
	c-15.5,0-28-12.5-28-28V63C527,47.5,539.5,35,555,35z"/>
<path class="st4" d="M907.5,55l80.2-10.9c5.4-0.6,10.3,2.7,10.3,7.1v41.7c0,4.4-4.9,7.7-10.3,7.1l-80.2-10"/>
<path class="st6" d="M806.3,98.3c0,0,47.4,0.2,60.9-1.3c8.1-0.9,25.9-5.8,30.4-9.9"/>
<path class="st7" d="M954.9,88.1c0,0,27.5,2.8,35.5,2.3"/>
<path class="st7" d="M971.5,191.5c0,0,19.2,3.3,25.8,2.4"/>
<path class="st1" d="M555,226h314.9l35.3,11.7c1.6,0.5,2.7,2.1,2.7,3.8v44.5c0,1.8-1.2,3.3-2.9,3.8L869.9,300H555
	c-15.5,0-28-12.5-28-28v-18C527,238.5,539.5,226,555,226z"/>
<path class="st4" d="M907.5,245.6l80.2-10.9c5.4-0.6,10.3,2.7,10.3,7.1v41.7c0,4.4-4.9,7.7-10.3,7.1l-80.2-10"/>
<path class="st6" d="M806.3,288.9c0,0,47.4,0.2,60.9-1.3c8.1-0.9,25.9-5.8,30.4-9.9"/>
<path class="st7" d="M954.9,278.6c0,0,27.5,2.8,35.5,2.3"/>
<path class="st6" d="M766.3,202.6c0,0,106.8,0.2,120.2-1.3c8.1-0.9,25.9-5.8,30.4-9.9"/>
<line class="st6" x1="235" y1="189" x2="285" y2="189"/>
<line class="st8" x1="320.7" y1="192.7" x2="365.7" y2="199.4"/>
<line class="st8" x1="144.1" y1="182.4" x2="194.2" y2="187.6"/>
<path class="st9" d="M479.5,187.5l0-14c0,0,16.7,3.1,18.7-4.9"/>
<line class="st10" x1="519.5" y1="189.5" x2="537.5" y2="189.5"/>
<line class="st10" x1="583" y1="188.1" x2="576.5" y2="172.6"/>
<line class="st10" x1="603.5" y1="186.5" x2="603.5" y2="168.5"/>
<line class="st10" x1="631.5" y1="186.5" x2="631.5" y2="166.5"/>
<line class="st10" x1="681.5" y1="188.5" x2="681.5" y2="167.5"/>
<line class="st10" x1="651.5" y1="187.5" x2="651.5" y2="173.5"/>
<path class="st10" d="M724.7,186.4c6.5-1.5,6.1-7.1,6.1-22.6"/>
<line class="st10" x1="750.5" y1="187.5" x2="750.5" y2="174.5"/>
<line class="st10" x1="788.5" y1="187.5" x2="788.5" y2="168.5"/>
<line class="st10" x1="771.3" y1="183.9" x2="776.8" y2="172.6"/>
<line class="st10" x1="550.6" y1="188.4" x2="552.6" y2="183.6"/>
<line class="st10" x1="557.8" y1="169.9" x2="561.1" y2="162.3"/>
</svg>
