<?xml version="1.0" encoding="utf-8"?>
<!-- Generator: Adobe Illustrator 23.0.0, SVG Export Plug-In . SVG Version: 6.00 Build 0)  -->
<svg version="1.1" id="Layer_1" xmlns="http://www.w3.org/2000/svg" xmlns:xlink="http://www.w3.org/1999/xlink" x="0px" y="0px"
	 viewBox="0 0 1024 256" style="enable-background:new 0 0 1024 256;" xml:space="preserve">
<style type="text/css">
	.st0{fill:#FFFFFF;stroke:#000000;stroke-miterlimit:10;}
	.st1{fill:#999999;}
	.st2{fill:#737373;}
	.st3{fill:none;stroke:#666666;stroke-width:27;stroke-linecap:round;stroke-miterlimit:10;}
	.st4{fill:none;stroke:#666666;stroke-width:17;stroke-linecap:round;stroke-miterlimit:10;}
	.st5{fill:none;stroke:#666666;stroke-width:24;stroke-linecap:round;stroke-miterlimit:10;}
	.st6{fill:none;stroke:#666666;stroke-width:9;stroke-linecap:round;stroke-miterlimit:10;}
	.st7{fill:#737373;stroke:#737373;stroke-width:5;stroke-miterlimit:10;}
	.st8{fill:none;stroke:#666666;stroke-width:4;stroke-linecap:round;stroke-miterlimit:10;}
</style>
<path class="st0" d="M-27.5,192.5"/>
<path class="st1" d="M1024,256H1V119C1,119,247,7,513,7s511,112,511,112"/>
<circle class="st2" cx="113" cy="238" r="45"/>
<circle class="st2" cx="420.5" cy="184.5" r="107.5"/>
<circle class="st2" cx="721" cy="64" r="18"/>
<circle class="st2" cx="825" cy="272" r="58"/>
<circle class="st2" cx="142.5" cy="125.5" r="34.5"/>
<path class="st3" d="M491.5,135.5c0,0,29,44,0,93c-29,48.9-71,48-71,48"/>
<path class="st3" d="M846.5,242.5c0,0,21,12,14,41c-6.8,28.3-39,27-39,27"/>
<path class="st4" d="M161.5,115.5c0,0,6.3,9.9,0.1,20.3s-15.1,11.7-15.1,11.7"/>
<path class="st5" d="M131.5,217.5c0,0,16.7,17.8,4.2,35.5c-10.2,14.5-23.2,14.5-23.2,14.5"/>
<path class="st6" d="M728.9,56.8c0,0,3.5,5.3,1.2,10.6c-1.8,4.1-5,7-9.1,6.6"/>
<g>
	<path class="st7" d="M682.5,105.1c2.4,2,4.3,4.5,5.7,7.7c0.4,0.9,0.6,1.8,0.5,2.5c-0.1,1-0.7,1.7-1.7,2.2c-0.5,0.2-1.1,0.3-1.8,0.2
		c-0.7-0.1-1.3-0.4-1.8-0.8s-0.9-0.9-1.1-1.6c-0.9-2.2-2.2-4-3.9-5.3c-1.7-1.3-3.9-2.2-6.7-2.6c-3.4-0.5-6.3-0.2-8.6,0.8
		c-2.3,1-3.6,2.8-4,5.3c-0.3,2.3,0.3,4.4,2,6.3c1.7,1.8,4.9,3.4,9.6,4.6c5.3,1.3,9.2,3.6,11.8,6.7c2.6,3.1,3.5,6.9,2.9,11.4
		c-0.5,3.2-1.8,5.9-3.8,7.9c-2.1,2.1-4.7,3.4-7.7,4.2c-3.1,0.7-6.3,0.8-9.6,0.4c-4.4-0.6-8.2-2.2-11.4-4.7c-3.3-2.5-5.4-5.4-6.2-8.8
		c-0.1-0.6-0.2-1-0.1-1.4c0.1-0.7,0.4-1.2,1-1.7c0.6-0.4,1.3-0.7,2.2-0.7c0.1,0,0.4,0,0.7,0c0.7,0.1,1.4,0.4,2,0.9
		c0.6,0.5,1,1.2,1.2,1.9c0.6,1.9,1.9,3.6,4.1,5.1s4.7,2.5,7.6,3c3.4,0.5,6.3,0.1,8.9-1.1s4-3.2,4.4-5.8c0.4-2.6-0.3-4.9-2-7
		c-1.7-2.1-4.6-3.7-8.5-4.7c-5.5-1.4-9.6-3.6-12.4-6.8c-2.8-3.2-3.9-6.8-3.3-10.9c0.4-2.9,1.6-5.2,3.5-7.1c1.9-1.8,4.4-3.1,7.4-3.8
		c3-0.7,6.3-0.8,9.8-0.2C677,101.8,680.1,103.1,682.5,105.1z"/>
	<path class="st7" d="M709.4,108.2c0.8-0.6,1.6-0.8,2.6-0.6c1,0.2,1.8,0.6,2.4,1.3c0.6,0.7,0.8,1.6,0.6,2.7l-6.7,45.5
		c-0.1,1-0.6,1.8-1.3,2.3s-1.6,0.8-2.7,0.6c-1-0.1-1.8-0.6-2.3-1.4s-0.8-1.7-0.6-2.6l6.7-45.6C708.2,109.6,708.6,108.8,709.4,108.2z
		"/>
	<path class="st7" d="M762.8,162.6c0.6,0.8,0.8,1.7,0.6,2.6s-0.6,1.8-1.4,2.3c-0.8,0.6-1.7,0.8-2.6,0.6l-27.9-4.1
		c-1-0.1-1.8-0.6-2.3-1.4c-0.6-0.8-0.8-1.6-0.6-2.6l6.7-45.5c0.1-1,0.6-1.8,1.4-2.3s1.6-0.8,2.6-0.7c1,0.1,1.8,0.6,2.3,1.4
		c0.6,0.8,0.8,1.7,0.6,2.6l-6.2,42.1l24.4,3.6C761.5,161.4,762.2,161.8,762.8,162.6z"/>
	<path class="st7" d="M819.7,124.2c0.5,0.6,0.7,1.4,0.5,2.2c-0.1,0.5-0.3,1.1-0.7,1.7L793,170.9c-0.8,1.4-2,2-3.5,1.8
		c-1.4-0.2-2.4-1.1-2.8-2.7l-13.1-48c-0.2-1-0.3-1.8-0.2-2.4c0.1-0.9,0.5-1.6,1.2-2c0.6-0.4,1.4-0.6,2.4-0.4
		c1.6,0.2,2.5,1.1,2.9,2.6l11,43.1l23.2-38.1c0.4-0.8,0.9-1.3,1.5-1.5c0.5-0.2,1.2-0.3,2-0.2C818.5,123.2,819.3,123.6,819.7,124.2z"
		/>
	<path class="st7" d="M865.2,178c0.5,0.7,0.7,1.5,0.6,2.4c-0.1,1-0.6,1.7-1.3,2.3c-0.7,0.5-1.6,0.7-2.6,0.5l-30.4-4.5
		c-1-0.1-1.8-0.6-2.3-1.4c-0.6-0.8-0.8-1.7-0.6-2.6l6.7-45.6c0.2-1,0.6-1.8,1.4-2.4c0.8-0.6,1.6-0.8,2.6-0.6l30.4,4.5
		c1,0.2,1.8,0.6,2.4,1.3c0.5,0.7,0.7,1.5,0.6,2.5c-0.1,0.9-0.6,1.7-1.3,2.2s-1.6,0.7-2.6,0.5l-26.9-3.9l-2.4,16.3l19.3,2.8
		c1,0.1,1.8,0.6,2.3,1.3c0.6,0.7,0.8,1.5,0.6,2.5c-0.1,0.9-0.6,1.7-1.3,2.2c-0.7,0.5-1.6,0.7-2.6,0.5l-19.3-2.8l-2.5,16.8l26.9,3.9
		C863.8,176.9,864.6,177.3,865.2,178z"/>
	<path class="st7" d="M917.1,188.1c-0.1,0.9-0.5,1.6-1.2,2.1c-0.7,0.5-1.6,0.7-2.6,0.5c-1.3-0.2-2.2-0.9-2.8-2.1l-8.9-20.3l-1.2-0.2
		l-8.6-1.3l-2.5,16.8c-0.1,1-0.6,1.8-1.3,2.3c-0.7,0.6-1.6,0.8-2.7,0.6c-1-0.1-1.8-0.6-2.3-1.4c-0.6-0.8-0.8-1.7-0.6-2.6l6.7-45.5
		c0.2-1,0.6-1.8,1.4-2.4c0.8-0.6,1.6-0.8,2.6-0.6l12.1,1.8c3.3,0.5,6.2,1.6,8.6,3.4c2.4,1.8,4.2,4,5.3,6.8c1.1,2.7,1.4,5.7,0.9,8.9
		c-0.5,3.2-1.7,5.9-3.7,8.1c-2,2.2-4.4,3.8-7.4,4.6l7.9,18.1C917.1,186.6,917.3,187.3,917.1,188.1z M901.4,161.7
		c3,0.4,5.7,0,7.9-1.5c2.2-1.4,3.5-3.5,3.9-6.3c0.4-3-0.2-5.5-1.9-7.7c-1.7-2.2-4.1-3.5-7.1-3.9l-8.6-1.3l-2.8,19.4L901.4,161.7z"/>
</g>
<path class="st8" d="M683.3,134.4c0,0,4.1,4.7-0.3,12.4c-4.4,7.8-11.4,6.8-11.4,6.8"/>
<line class="st8" x1="711.3" y1="130.8" x2="707.3" y2="157.6"/>
<line class="st8" x1="735" y1="163.1" x2="758.9" y2="166.9"/>
<line class="st8" x1="792.5" y1="170.2" x2="808.9" y2="143.7"/>
<line class="st8" x1="833.3" y1="178.4" x2="861.3" y2="182.7"/>
<line class="st8" x1="844.6" y1="156" x2="856.5" y2="157.8"/>
<line class="st8" x1="890.7" y1="171.1" x2="888.7" y2="184.4"/>
<path class="st8" d="M913,178.3c0,0,3,5.2,3.5,8.1s-1.7,3.6-1.7,3.6"/>
<path class="st8" d="M912.7,165.5c0,0,3.1-1,6.1-6.8"/>
</svg>
