<?xml version="1.0" encoding="utf-8"?>
<!-- Generator: Adobe Illustrator 23.0.0, SVG Export Plug-In . SVG Version: 6.00 Build 0)  -->
<svg version="1.1" id="Layer_1" xmlns="http://www.w3.org/2000/svg" xmlns:xlink="http://www.w3.org/1999/xlink" x="0px" y="0px"
	 viewBox="0 0 1024 256" style="enable-background:new 0 0 1024 256;" xml:space="preserve">
<style type="text/css">
	.st0{fill:#FFFFFF;stroke:#000000;stroke-miterlimit:10;}
	.st1{fill:#999999;}
	.st2{fill:#737373;}
	.st3{fill:none;stroke:#666666;stroke-width:27;stroke-linecap:round;stroke-miterlimit:10;}
	.st4{fill:none;stroke:#666666;stroke-width:17;stroke-linecap:round;stroke-miterlimit:10;}
	.st5{fill:none;stroke:#666666;stroke-width:24;stroke-linecap:round;stroke-miterlimit:10;}
	.st6{fill:none;stroke:#666666;stroke-width:9;stroke-linecap:round;stroke-miterlimit:10;}
	.st7{fill:#737373;stroke:#737373;stroke-width:5;stroke-miterlimit:10;}
	.st8{font-family:'Comfortaa-Bold';}
	.st9{font-size:68px;}
	.st10{letter-spacing:6;}
	.st11{fill:none;stroke:#666666;stroke-width:4;stroke-linecap:round;stroke-miterlimit:10;}
</style>
<path class="st0" d="M-27.5,192.5"/>
<path class="st1" d="M1024,256H1V119C1,119,247,7,513,7s511,112,511,112"/>
<circle class="st2" cx="113" cy="238" r="45"/>
<circle class="st2" cx="420.5" cy="184.5" r="107.5"/>
<circle class="st2" cx="721" cy="64" r="18"/>
<circle class="st2" cx="825" cy="272" r="58"/>
<circle class="st2" cx="142.5" cy="125.5" r="34.5"/>
<path class="st3" d="M491.5,135.5c0,0,29,44,0,93c-29,48.9-71,48-71,48"/>
<path class="st3" d="M846.5,242.5c0,0,21,12,14,41c-6.8,28.3-39,27-39,27"/>
<path class="st4" d="M161.5,115.5c0,0,6.3,9.9,0.1,20.3s-15.1,11.7-15.1,11.7"/>
<path class="st5" d="M131.5,217.5c0,0,16.7,17.8,4.2,35.5c-10.2,14.5-23.2,14.5-23.2,14.5"/>
<path class="st6" d="M728.9,56.8c0,0,3.5,5.3,1.2,10.6c-1.8,4.1-5,7-9.1,6.6"/>
<text transform="matrix(0.9894 0.1449 -0.1449 0.9894 637.5959 150.3717)" class="st7 st8 st9 st10">SILVER</text>
<path class="st11" d="M683.3,134.4c0,0,4.1,4.7-0.3,12.4c-4.4,7.8-11.4,6.8-11.4,6.8"/>
<line class="st11" x1="711.3" y1="130.8" x2="707.3" y2="157.6"/>
<line class="st11" x1="735" y1="163.1" x2="758.9" y2="166.9"/>
<line class="st11" x1="792.5" y1="170.2" x2="808.9" y2="143.7"/>
<line class="st11" x1="833.3" y1="178.4" x2="861.3" y2="182.7"/>
<line class="st11" x1="844.6" y1="156" x2="856.5" y2="157.8"/>
<line class="st11" x1="890.7" y1="171.1" x2="888.7" y2="184.4"/>
<path class="st11" d="M913,178.3c0,0,3,5.2,3.5,8.1s-1.7,3.6-1.7,3.6"/>
<path class="st11" d="M912.7,165.5c0,0,3.1-1,6.1-6.8"/>
</svg>
